<svg width="10" height="12" viewBox="0 0 10 12" fill="none" xmlns="http://www.w3.org/2000/svg">
<path fill-rule="evenodd" clip-rule="evenodd" d="M9.33877 7.69049C8.97359 7.69049 8.67754 7.98657 8.67754 8.35172V9.03794C8.67754 9.40255 8.38092 9.69918 8.0163 9.69918H1.9837C1.61908 9.69918 1.32247 9.40255 1.32247 9.03794V8.35172C1.32247 7.98657 1.02641 7.69049 0.661234 7.69049C0.29606 7.69049 0 7.98657 0 8.35172V9.03794C0 10.1318 0.88988 11.0216 1.9837 11.0216H8.0163C9.11017 11.0216 10 10.1318 10 9.03794V8.35172C10 7.98657 9.70401 7.69049 9.33877 7.69049" fill="white"/>
<path fill-rule="evenodd" clip-rule="evenodd" d="M5.00002 0C4.63485 0 4.33879 0.296044 4.33879 0.661234V6.72266L3.80738 6.19765C3.54761 5.94094 3.12892 5.94347 2.87224 6.20324C2.6156 6.46301 2.61812 6.88164 2.87789 7.13834L4.55643 8.79689C4.68022 8.91922 4.8472 8.98772 5.02118 8.98772H5.02512C5.2005 8.98668 5.36828 8.91602 5.49153 8.7913L7.12775 7.13532C7.38439 6.87555 7.38193 6.45687 7.12216 6.20017C6.86239 5.94354 6.4437 5.94599 6.18702 6.20576L5.66126 6.73791V0.661234C5.66126 0.296044 5.3652 0 5.00002 0" fill="white"/>
</svg>
