<svg width="40" height="12" viewBox="0 0 40 12" fill="none" xmlns="http://www.w3.org/2000/svg">
<g clip-path="url(#clip0_0_517)">
<path fill-rule="evenodd" clip-rule="evenodd" d="M9.33877 7.69046C8.97359 7.69046 8.67754 7.98654 8.67754 8.35169V9.03791C8.67754 9.40252 8.38092 9.69915 8.0163 9.69915H1.9837C1.61908 9.69915 1.32247 9.40252 1.32247 9.03791V8.35169C1.32247 7.98654 1.02641 7.69046 0.661234 7.69046C0.29606 7.69046 0 7.98654 0 8.35169V9.03791C0 10.1317 0.88988 11.0216 1.9837 11.0216H8.0163C9.11017 11.0216 10 10.1317 10 9.03791V8.35169C10 7.98654 9.70401 7.69046 9.33877 7.69046" fill="white"/>
<path fill-rule="evenodd" clip-rule="evenodd" d="M5.00002 0C4.63485 0 4.33879 0.296044 4.33879 0.661234V6.72266L3.80738 6.19765C3.54761 5.94094 3.12892 5.94347 2.87224 6.20324C2.6156 6.46301 2.61812 6.88164 2.87789 7.13834L4.55643 8.79689C4.68022 8.91922 4.8472 8.98772 5.02118 8.98772H5.02512C5.2005 8.98668 5.36828 8.91602 5.49153 8.7913L7.12775 7.13532C7.38439 6.87555 7.38193 6.45687 7.12216 6.20017C6.86239 5.94354 6.4437 5.94599 6.18702 6.20576L5.66126 6.73791V0.661234C5.66126 0.296044 5.3652 0 5.00002 0" fill="white"/>
<path d="M19.4588 2.72727H18.3899L16.5753 3.91335V4.96449L18.3153 3.82812H18.358V10H19.4588V2.72727ZM21.2734 8.57955H24.7216V10H25.7692V8.57955H26.7315V7.64915H25.7692V2.72727H24.4162L21.2734 7.69176V8.57955ZM24.7287 7.64915H22.424V7.59233L24.6719 4.03409H24.7287V7.64915ZM30.5082 10.0994C32.0281 10.1136 33.0366 9.01989 33.033 7.62429C33.0366 6.23224 32.0245 5.23438 30.7638 5.23438C29.9968 5.23438 29.3327 5.60369 28.9599 6.21804H28.9066C28.9102 4.56676 29.5352 3.58665 30.6005 3.58665C31.3001 3.58665 31.7404 4.01278 31.8896 4.61648H32.9727C32.8058 3.46591 31.9002 2.62784 30.6005 2.62784C28.9102 2.62784 27.8555 4.08026 27.8555 6.60866C27.8519 9.28622 29.2156 10.0888 30.5082 10.0994ZM30.5046 9.17614C29.6594 9.17614 29.0415 8.46591 29.0415 7.64915C29.0451 6.83594 29.6914 6.12571 30.5295 6.12571C31.3604 6.12571 31.9712 6.79688 31.9677 7.63849C31.9712 8.49787 31.3356 9.17614 30.5046 9.17614ZM34.3407 10H35.4025V8.06463L35.9316 7.53551L37.7853 10H39.0886L36.7306 6.88565L38.9395 4.54545H37.6681L35.4949 6.85369H35.4025V2.72727H34.3407V10Z" fill="white"/>
</g>
<defs>
<clipPath id="clip0_0_517">
<rect width="40" height="12" fill="white"/>
</clipPath>
</defs>
</svg>
