<svg width="35" height="12" viewBox="0 0 35 12" fill="none" xmlns="http://www.w3.org/2000/svg">
<g clip-path="url(#clip0_0_511)">
<path fill-rule="evenodd" clip-rule="evenodd" d="M5 3.37444C5.46233 2.53911 6.33611 2.01485 7.29073 2C8.84712 2.06762 10.0567 3.37954 9.99795 4.93629C9.99795 6.8301 8.0046 8.89842 6.33279 10.3008C5.56224 10.9483 4.43776 10.9483 3.66721 10.3008C1.9954 8.89842 0.0020521 6.8301 0.0020521 4.93629C-0.0566904 3.37954 1.15288 2.06762 2.70927 2C3.66389 2.01485 4.53767 2.53911 5 3.37444ZM0.835043 4.93629C0.835043 6.14538 2.06246 7.86801 4.20241 9.66352C4.66331 10.0516 5.33669 10.0516 5.79759 9.66352V9.66185C7.93754 7.86801 9.16496 6.14538 9.16496 4.93629C9.22422 3.83932 8.38725 2.90005 7.29073 2.83299C6.1942 2.90005 5.35723 3.83932 5.4165 4.93629C5.4165 5.16632 5.23002 5.35279 5 5.35279C4.76998 5.35279 4.5835 5.16632 4.5835 4.93629C4.64277 3.83932 3.8058 2.90005 2.70927 2.83299C1.61275 2.90005 0.775777 3.83932 0.835043 4.93629Z" fill="white"/>
<path d="M16.6996 10H21.4865V9.05895H18.2124V9.00568L19.6577 7.4929C20.9893 6.14702 21.3693 5.50426 21.3693 4.69105C21.3693 3.52273 20.4176 2.62784 19.0469 2.62784C17.6868 2.62784 16.6925 3.50852 16.6925 4.83665H17.7401C17.7365 4.0554 18.2408 3.54403 19.0256 3.54403C19.7642 3.54403 20.3253 3.99858 20.3253 4.72301C20.3253 5.36577 19.9418 5.82741 19.1605 6.65483L16.6996 9.20455V10ZM25.3643 10.0994C26.8487 10.0994 27.9389 9.21165 27.9354 8.00426C27.9389 7.08452 27.3814 6.42401 26.4155 6.27486V6.21804C27.1754 6.02273 27.669 5.42614 27.6655 4.60938C27.669 3.54048 26.7919 2.62784 25.3928 2.62784C24.0575 2.62784 22.9851 3.43395 22.9496 4.61648H24.0114C24.0362 3.94886 24.6648 3.54403 25.3786 3.54403C26.1207 3.54403 26.6072 3.99503 26.6037 4.66619C26.6072 5.36932 26.0426 5.83097 25.2365 5.83097H24.6222V6.72585H25.2365C26.245 6.72585 26.8274 7.23722 26.8274 7.96875C26.8274 8.67543 26.2131 9.15483 25.3572 9.15483C24.5689 9.15483 23.9545 8.75 23.9119 8.10369H22.7969C22.843 9.28977 23.8942 10.0994 25.3643 10.0994ZM29.2777 10H34.0646V9.05895H30.7905V9.00568L32.2358 7.4929C33.5675 6.14702 33.9474 5.50426 33.9474 4.69105C33.9474 3.52273 32.9957 2.62784 31.625 2.62784C30.2649 2.62784 29.2706 3.50852 29.2706 4.83665H30.3182C30.3146 4.0554 30.8189 3.54403 31.6037 3.54403C32.3423 3.54403 32.9034 3.99858 32.9034 4.72301C32.9034 5.36577 32.5199 5.82741 31.7386 6.65483L29.2777 9.20455V10Z" fill="white"/>
</g>
<defs>
<clipPath id="clip0_0_511">
<rect width="35" height="12" fill="white"/>
</clipPath>
</defs>
</svg>
